<svg width="308" height="423" viewBox="0 0 308 423" fill="none" xmlns="http://www.w3.org/2000/svg">
<g clip-path="url(#about_char_clip)">
<g id="Group 4">
<path id="Vector" d="M62.0441 161.119C60.4913 159.487 58.5515 158.274 56.4047 157.593C54.2579 156.912 51.9738 156.784 49.7645 157.222C47.768 158.156 46.0935 159.662 44.9526 161.548C43.3843 164.569 42.4443 167.876 42.1891 171.271C41.9339 174.665 42.3689 178.076 43.4679 181.298C46.7808 192.852 54.2615 202.767 64.4628 209.123C65.6777 210.08 67.1044 210.731 68.6231 211.023C70.1418 211.314 71.7083 211.237 73.191 210.798C74.8243 209.915 76.0498 208.431 76.6083 206.66C78.5832 201.703 78.9486 196.251 77.6529 191.075C76.493 179.455 70.9033 168.727 62.0441 161.119Z" fill="#F7846C"/>
<path id="Vector_2" d="M235.188 161.119C236.741 159.487 238.681 158.274 240.828 157.593C242.975 156.912 245.259 156.784 247.468 157.222C249.464 158.156 251.139 159.662 252.28 161.548C253.848 164.569 254.788 167.876 255.043 171.271C255.299 174.665 254.863 178.076 253.764 181.298C250.452 192.852 242.971 202.767 232.77 209.123C231.555 210.08 230.128 210.731 228.609 211.023C227.091 211.314 225.524 211.237 224.041 210.798C222.408 209.915 221.183 208.431 220.624 206.66C218.649 201.703 218.284 196.251 219.58 191.075C220.739 179.455 226.329 168.727 235.188 161.119Z" fill="#F7846C"/>
<path id="Vector_3" d="M69.4355 199.538C70.124 180.176 61.755 172.647 53.5898 164.526C58.133 171.624 61.5103 179.404 63.5938 187.569C60.3696 185.241 56.4794 184.018 52.5032 184.082C58.7303 188.558 64.414 193.742 69.4355 199.538Z" fill="#DD4040"/>
<path id="Vector_4" d="M227.799 199.538C227.11 180.176 235.479 172.647 243.645 164.526C239.101 171.624 235.724 179.404 233.641 187.569C236.865 185.241 240.755 184.018 244.731 184.082C238.504 188.558 232.82 193.742 227.799 199.538Z" fill="#DD4040"/>
<g id="man_character">
<g id="Group">
<path id="Vector_5" d="M192.926 344.056C204.217 340.06 205.966 324.955 196.011 318.295C192.271 315.793 188.703 312.351 185.435 307.559C173.322 289.794 174.092 241.099 174.092 241.099L129.604 241.256C129.604 241.256 130.718 289.945 118.73 307.794C115.091 313.213 111.061 316.924 106.823 319.513C96.3069 325.936 97.8435 341.576 109.475 345.645C120.034 349.339 133.025 352.077 148.282 352.024C165.257 351.964 180.469 348.463 192.926 344.056Z" fill="#F7846C"/>
<path id="Vector_6" d="M151.737 306.41C164.717 300.113 167.578 294.141 177.439 284.281C173.729 264.121 174.093 241.099 174.093 241.099L129.605 241.256C129.605 241.256 130.525 281.531 121.672 302.249C122.91 303.084 124.144 303.937 125.37 304.822C130.883 308.719 145.704 309.439 151.737 306.41Z" fill="#F7846C"/>
</g>
<g id="Group_2">
<path id="Vector_7" d="M230.421 329.402C221.506 325.899 195.194 315.072 191.87 313.717C191.574 322.868 170.019 337.404 152.782 337.404C135.546 337.404 113.685 322.868 113.388 313.717C109.804 315.178 83.4821 326.005 74.837 329.402C70.6827 350.527 63.0352 547.579 63.0352 558.72C63.0352 569.861 72.1355 575.477 91.1514 574.025C134.815 570.692 190.088 573.297 221.093 574.025C239.467 574.457 244.949 564.839 244.949 558.72C244.948 552.6 234.575 350.528 230.421 329.402Z" fill="#643CFF"/>
<path id="Vector_8" d="M247.264 558.719C247.264 555.432 244.563 501.671 241.554 449.554C241.145 442.463 240.714 435.124 240.271 427.724C224.759 424.374 218.786 335.572 227.829 325.895L191.129 311.476L191.018 314.752C190.786 321.647 179.842 429.262 151.741 429.262C123.64 429.262 114.02 321.647 113.787 314.752L113.354 311.781L77.4317 325.894C86.4746 335.571 81.0193 423.362 65.9984 427.478C63.1275 487.444 60.7188 553.06 60.7188 558.72C60.7188 562.095 61.4644 565.737 63.7927 568.846V583.061H244.19V567.626C246.168 564.953 247.264 561.843 247.264 558.719Z" fill="#9778FF"/>
<path id="Vector_9" d="M75.6854 524.556C67.0399 498.619 66.0226 459.288 73.1425 432.335C79.1504 410.932 84.0397 389.253 81.4846 368.115C80.1126 395.061 74.6382 425.11 65.9984 427.478C63.1275 487.444 60.7188 553.06 60.7188 558.72C60.7188 562.095 61.464 565.736 63.7927 568.846V583.061H132.71C96.7145 569.834 85.2681 553.304 75.6854 524.556Z" fill="#643CFF"/>
<path id="Vector_10" d="M164.176 441.997C174.856 435.895 181.467 425.215 185.536 414.027C197.047 382.563 204.501 350.23 206.377 317.467L191.129 311.476L191.019 314.752C190.787 321.647 179.843 429.262 151.742 429.262C123.641 429.262 114.473 321.647 114.241 314.752L113.842 311.318L103.057 315.827C104.569 353.785 109.224 392.051 126.543 426.232C133.663 439.963 149.937 449.626 164.176 441.997Z" fill="#643CFF"/>
<g id="Group_3">
<path id="Vector_11" d="M183.939 304.548C183.939 304.548 193.287 316.473 202.693 320.739C202.693 320.739 196.131 358.273 189.777 379.535C189.777 379.535 190.112 352.821 177.44 345.248C164.841 337.718 152.783 337.404 152.783 337.404C152.783 337.404 175.281 328.283 179.151 324.414C183.019 320.544 183.939 304.548 183.939 304.548Z" fill="#F9F5F3"/>
<path id="Vector_12" d="M120.301 304.548C120.301 304.548 110.953 316.473 101.547 320.739C101.547 320.739 108.109 358.273 114.464 379.535C114.464 379.535 114.648 353.629 126.8 345.248C137.575 337.816 151.457 337.404 151.457 337.404C151.457 337.404 128.959 328.283 125.09 324.414C121.221 320.544 120.301 304.548 120.301 304.548Z" fill="#F9F5F3"/>
</g>
</g>
<g id="Group_4">
<path id="Vector_13" d="M228.082 328.728C233.644 326.654 254.813 329.823 270.698 354.607C286.582 379.391 306.294 506.254 306.294 517.286C306.294 528.317 249.841 610.138 245.364 614.732C240.886 619.326 195.845 589.347 206.52 578.393C217.195 567.439 245.368 509.931 248.056 503.496C250.744 497.061 228.027 388.007 226.829 378.082C225.192 364.519 225.991 329.507 228.082 328.728Z" fill="#643CFF"/>
</g>
<g id="Group_5">
<path id="Vector_14" d="M78.2116 328.727C72.65 326.654 51.4808 329.823 35.596 354.607C19.7112 379.39 0 506.254 0 517.286C0 528.317 56.4522 610.137 60.9298 614.732C65.4075 619.326 110.449 589.347 99.7735 578.393C89.0981 567.439 60.9255 509.931 58.2375 503.496C55.5495 497.061 78.2668 388.007 79.4646 378.082C81.1019 364.519 80.3027 329.507 78.2116 328.727Z" fill="#643CFF"/>
</g>
</g>
<path id="Vector_15" d="M231.516 151.087C233.337 173.833 232.431 185.083 228.817 207.614C225.553 227.765 219.597 248.35 205.441 263.959C195.883 273.604 183.127 279.419 169.577 280.309C151.265 281.347 134.173 283.237 117.349 275.933C105.093 271.472 94.5259 263.312 87.1097 252.582C79.9501 241.334 78.3771 227.667 76.2687 214.687C73.4059 198.054 71.93 192.844 71.8561 175.966C72.1771 152.869 75.6006 122.151 91.0158 104.048C98.2111 95.8418 107.05 89.238 116.96 84.6646C126.87 80.0912 137.63 77.6502 148.543 77.4997C161.744 77.7719 174.705 81.0852 186.418 87.1821C198.13 93.2789 208.278 101.995 216.074 112.653C225.196 123.485 230.608 136.954 231.516 151.087Z" fill="#F7846C"/>
<path id="Vector_16" d="M146.277 219.141C149.195 207.703 151.432 196.102 152.975 184.398C156.497 198.099 159.138 207.305 163.065 219.141C157.502 219.255 151.939 219.141 146.277 219.141Z" fill="#DD4040"/>
<g id="Group 13">
<path id="Vector_17" d="M93.5913 174.445C101.195 162.139 110.862 155.499 120.512 155.823C125.65 156.159 130.537 158.173 134.419 161.556C138.302 164.939 140.966 169.504 142.001 174.549C135.361 179.726 127.092 182.363 118.682 181.988C109.69 182.515 100.802 179.842 93.5913 174.445Z" fill="white"/>
<circle id="Ellipse 1" cx="118.053" cy="169.106" r="11.9789" fill="black"/>
<path id="Vector_18" d="M116.264 158.369C119.344 157.474 121.807 158.039 124.317 158.369C126.827 158.699 131.811 161.39 134.159 163.738C136.844 166.422 141.318 172.141 142.212 174.692C140.539 170.246 140.423 165.527 135.949 161.053C131.475 155.685 122.781 153.423 118.053 153.895C108.813 155.076 98.5444 161.27 93.1758 174.692C100.505 167.869 106.648 161.163 116.264 158.369Z" fill="#DD4040"/>
</g>
<g id="Group 14">
<path id="Vector_19" d="M164.591 174.445C172.195 162.139 181.862 155.499 191.512 155.823C196.65 156.159 201.537 158.173 205.419 161.556C209.302 164.939 211.966 169.504 213.001 174.549C206.361 179.726 198.092 182.363 189.682 181.988C180.69 182.515 171.802 179.842 164.591 174.445Z" fill="white"/>
<circle id="Ellipse 2" cx="189.055" cy="169.106" r="11.9789" fill="black"/>
<path id="Vector_20" d="M187.264 158.369C190.344 157.474 192.807 158.039 195.317 158.369C197.827 158.699 202.811 161.39 205.159 163.738C207.844 166.422 212.318 172.141 213.212 174.692C211.539 170.246 211.423 165.527 206.949 161.053C202.475 155.685 193.781 153.423 189.053 153.895C179.813 155.076 169.544 161.27 164.176 174.692C171.505 167.869 177.648 161.163 187.264 158.369Z" fill="#DD4040"/>
</g>
<path id="Vector_21" d="M135.175 132.395C125.259 131.596 115.247 133.198 106.076 137.053C97.3108 140.84 89.8054 146.877 84.4196 154.471C94.9518 151.536 105.819 149.912 116.746 149.641C120.336 149.519 123.876 148.72 127.16 147.29C130.19 146.164 132.689 144.015 134.171 141.262C135.652 138.508 136.01 135.347 135.175 132.395Z" fill="black"/>
<path id="Vector_22" d="M165.947 132.402C175.814 131.131 185.891 132.253 195.236 135.665C204.172 139.029 211.957 144.701 217.699 152.029C207.039 149.6 196.106 148.497 185.179 148.749C181.587 148.798 178.013 148.169 174.664 146.898C171.584 145.918 168.985 143.891 167.374 141.211C165.763 138.532 165.254 135.391 165.947 132.402Z" fill="black"/>
<path id="Vector_23" d="M42.5908 87.9744C42.5908 94.9186 57.3236 161.838 75.841 179.112C76.4794 181.167 79.3316 181.255 80.1531 179.266C77.432 144.254 91.0108 109.944 116.955 86.2766L119.999 83.5C119.999 83.5 141.038 129.513 158.788 131.188C176.059 132.863 171.262 106.06 171.022 104.624C171.742 105.821 182.296 126.641 195.967 129.034C209.4 131.427 201.005 108.692 200.046 106.299C201.368 108.774 212.511 136.036 223.629 153.136C230.299 163.394 241.534 159.9 247.47 149.203C249.048 146.359 250.404 143.936 251.136 142.675C260.011 126.641 258.572 106.778 248.018 92.1801C252.335 92.659 256.653 90.2659 259.052 86.6765C262.17 81.4112 261.21 74.7107 258.572 69.6852C255.454 63.9418 250.656 59.395 245.86 55.0874C237.704 48.1474 228.589 42.6434 218.515 38.8144C219.954 38.3358 221.393 37.3786 222.352 36.182C224.991 33.3103 225.71 29.0028 224.031 25.6524C222.592 22.3021 219.474 20.1483 216.116 18.4732C212.518 16.798 208.921 15.3621 205.082 14.1656C197.166 11.5332 189.011 10.0973 180.856 9.61871C165.265 8.66153 149.674 11.5332 135.522 17.7552C137.201 12.2511 138.64 6.74703 140.319 1.48223C140.559 0.524999 139.599 -0.192927 138.88 0.0463817C132.403 1.24293 126.167 3.1574 120.41 5.78979C100.742 14.6442 64.8982 41.7882 56.9824 61.8901C56.0232 60.6936 54.8233 59.7363 53.1441 59.497C49.7866 58.7791 46.4283 61.4114 44.9891 64.2832C43.31 67.8728 43.31 71.941 43.07 75.77C42.5908 79.8382 42.5908 83.9065 42.5908 87.9744Z" fill="black"/>
<path id="Vector_24" d="M126.539 235.23C126.539 235.23 160.556 238.346 179.658 235.461C179.658 235.461 180.846 258.117 151.546 255.981C127.311 254.218 126.539 235.23 126.539 235.23Z" fill="white"/>
<path id="Vector 19" d="M123.991 267.997L123 277.163C123.647 283.152 128.25 287.952 134.206 288.851L153.213 291.72L172.766 288.823C178.721 287.941 183.329 283.148 183.976 277.163L182.986 268.009C182.93 267.484 182.411 267.138 181.904 267.288L181.411 267.434C163.015 272.885 143.427 272.835 125.059 267.29C124.56 267.139 124.047 267.479 123.991 267.997Z" fill="black"/>
</g>
</g>
<defs>
<clipPath id="about_char_clip">
<rect width="308" height="423" fill="white"/>
</clipPath>
</defs>
</svg>
