<svg width="59.263" height="30.6047" viewBox="0 0 59.263 30.6047" fill="none" xmlns="http://www.w3.org/2000/svg">
<g opacity="0.8">
<path d="M56.6818 6.16002C56.5423 5.80423 56.3191 5.47634 56.1656 5.12753C55.9563 4.65315 55.8656 4.13691 55.7749 3.62765C55.3703 1.3813 55.4749 2.90909 55.2726 0.634839C55.2447 0.35579 55.2447 0.160453 55.2726 5.57702e-09L0.0209287 9.96205C0.00697623 10.0318 6.31474e-10 10.1016 6.31474e-10 10.1713C0.0279049 10.7713 0.31393 11.4061 0.460431 11.9852C1.10922 14.5106 1.54872 17.0848 1.77196 19.6799C1.82777 20.3427 1.8766 21.0194 2.12077 21.6333C2.26727 21.9891 2.46958 22.3169 2.62306 22.6727C2.83932 23.189 2.93001 23.7471 3.02071 24.3052C3.34859 26.405 3.68345 28.5049 4.01133 30.6047L59.263 20.6426C58.4608 17.7057 57.1981 10.855 56.9679 7.82036C56.926 7.25529 56.8911 6.68324 56.6818 6.16002Z" fill="#5F6A8A"/>
</g>
</svg>
