<svg preserveAspectRatio="none" width="100%" height="100%" overflow="visible" style="display: block;" viewBox="0 0 58.9265 75.0001" fill="none" xmlns="http://www.w3.org/2000/svg">
<g id="Frame 26">
<g id="Group 26">
<path id="Vector" d="M7.60024 40.6864C7.20814 40.2744 6.71829 39.9681 6.17617 39.7961C5.63406 39.6241 5.05726 39.5919 4.49936 39.7024C3.99521 39.9384 3.57235 40.3185 3.28426 40.7948C2.88823 41.5577 2.65084 42.3929 2.5864 43.25C2.52196 44.1072 2.63182 44.9685 2.90934 45.7821C3.74591 48.6998 5.63497 51.2034 8.21102 52.8087C8.51782 53.0503 8.87809 53.2148 9.2616 53.2884C9.6451 53.362 10.0407 53.3425 10.4151 53.2316C10.8275 53.0086 11.137 52.6338 11.2781 52.1866C11.7768 50.9349 11.869 49.558 11.5418 48.251C11.2489 45.3166 9.83741 42.6077 7.60024 40.6864Z" fill="var(--fill-0, #F7846C)"/>
<path id="Vector_2" d="M51.324 40.6862C51.7161 40.2742 52.2059 39.968 52.748 39.796C53.2902 39.624 53.8669 39.5917 54.4249 39.7023C54.929 39.9382 55.3519 40.3184 55.6399 40.7946C56.036 41.5575 56.2734 42.3928 56.3378 43.2499C56.4022 44.1071 56.2924 44.9684 56.0149 45.7819C55.1783 48.6996 53.2892 51.2033 50.7132 52.8085C50.4064 53.0501 50.0461 53.2146 49.6626 53.2882C49.2791 53.3618 48.8835 53.3424 48.5091 53.2315C48.0967 53.0084 47.7872 52.6337 47.6462 52.1865C47.1475 50.9348 47.0552 49.5579 47.3824 48.2509C47.6753 45.3165 49.0868 42.6075 51.324 40.6862Z" fill="var(--fill-0, #F7846C)"/>
<path id="Vector_3" d="M9.46756 50.3879C9.64144 45.4987 7.52806 43.5975 5.46618 41.5468C6.61342 43.3391 7.46629 45.3036 7.9924 47.3656C7.17823 46.7777 6.19585 46.4689 5.19178 46.485C6.76426 47.6152 8.19953 48.9243 9.46756 50.3879Z" fill="var(--fill-0, #DD4040)"/>
<path id="Vector_4" d="M49.4599 50.3878C49.2861 45.4986 51.3994 43.5974 53.4613 41.5467C52.3141 43.339 51.4612 45.3035 50.9351 47.3655C51.7493 46.7777 52.7316 46.4688 53.7357 46.4849C52.1632 47.6151 50.728 48.9242 49.4599 50.3878Z" fill="var(--fill-0, #DD4040)"/>
<path id="Vector_5" d="M50.3974 38.153C50.8572 43.897 50.6284 46.7379 49.7159 52.4276C48.8915 57.5162 47.3875 62.7142 43.8129 66.6559C41.3992 69.0915 38.178 70.56 34.7563 70.7846C30.1322 71.0468 25.8161 71.5239 21.5675 69.6797C18.4726 68.553 15.8042 66.4924 13.9315 63.783C12.1235 60.9426 11.7263 57.4913 11.1938 54.2136C10.4709 50.0133 10.0982 48.6976 10.0796 44.4357C10.1606 38.6031 11.0251 30.846 14.9178 26.2748C16.7348 24.2025 18.9668 22.5348 21.4693 21.38C23.9717 20.2251 26.6889 19.6087 29.4447 19.5706C32.7784 19.6394 36.0513 20.4761 39.009 22.0157C41.9666 23.5553 44.5294 25.7563 46.4979 28.4476C48.8014 31.1829 50.168 34.5843 50.3974 38.153Z" fill="var(--fill-0, #F7846C)"/>
<path id="Vector_6" d="M28.8705 55.3384C29.6074 52.45 30.1722 49.5204 30.5618 46.5651C31.4513 50.0249 32.1182 52.3495 33.1098 55.3384C31.705 55.3672 30.3002 55.3384 28.8705 55.3384Z" fill="var(--fill-0, #DD4040)"/>
<g id="Group 8">
<path id="Vector_7" d="M20.6992 41.3617C21.3979 41.1587 21.9567 41.2868 22.526 41.3617C23.0954 41.4366 24.2262 42.0469 24.7588 42.5796C25.3678 43.1885 26.3827 44.486 26.5857 45.0646C26.2061 44.0559 26.1797 42.9856 25.1648 41.9707C24.1499 40.7527 22.1775 40.2396 21.1051 40.3468C19.0089 40.6147 16.6794 42.0198 15.4615 45.0646C17.1243 43.5169 18.5178 41.9954 20.6992 41.3617Z" fill="var(--fill-0, #DD4040)"/>
</g>
<g id="Group 7">
<path id="Vector_8" d="M39.5189 41.3616C40.2176 41.1586 40.7764 41.2866 41.3457 41.3616C41.9151 41.4365 43.0459 42.0468 43.5785 42.5795C44.1875 43.1884 45.2024 44.4859 45.4054 45.0645C45.0258 44.0558 44.9994 42.9854 43.9845 41.9705C42.9696 40.7526 40.9972 40.2395 39.9248 40.3467C37.8286 40.6145 35.4991 42.0197 34.2812 45.0645C35.944 43.5168 37.3375 41.9953 39.5189 41.3616Z" fill="var(--fill-0, #DD4040)"/>
</g>
<path id="Vector_9" d="M2.68883 22.2155C2.68883 23.9691 6.40921 40.8678 11.0853 45.23C11.2465 45.7488 11.9667 45.771 12.1742 45.2687L11.6234 38.182C11.2841 33.8157 12.9903 29.5392 16.2421 26.6057L22.0592 21.358C22.0592 21.358 27.5491 32.7049 32.0314 33.128C36.3926 33.551 35.1812 26.7826 35.1206 26.42C35.3024 26.7222 37.9675 31.9797 41.4199 32.584C44.8119 33.1883 42.692 27.4473 42.4498 26.843C42.7837 27.4678 45.5976 34.3523 48.4052 38.6702C50.0896 41.2607 52.9267 40.3785 54.4256 37.6771C54.824 36.959 55.1664 36.3472 55.3513 36.0286C57.5925 31.9797 57.229 26.9639 54.5639 23.2776C55.6542 23.3985 56.7444 22.7942 57.3503 21.8878C58.1377 20.5582 57.8953 18.8662 57.229 17.5971C56.4416 16.1468 55.2301 14.9986 54.0189 13.9108C51.9593 12.1583 49.6576 10.7684 47.1137 9.80153C47.4771 9.68066 47.8405 9.43895 48.0827 9.13679C48.7492 8.41161 48.9308 7.32386 48.5067 6.47782C48.1433 5.63179 47.3559 5.08791 46.508 4.6649C45.5994 4.24189 44.6909 3.87929 43.7217 3.57715C41.7227 2.91241 39.6634 2.54981 37.6041 2.42895C33.6669 2.18723 29.7298 2.91241 26.156 4.4836C26.5801 3.09369 26.9435 1.70378 27.3675 0.374298C27.4281 0.132574 27.1857 -0.0487186 27.0041 0.0117124C25.3686 0.313867 23.7937 0.797316 22.34 1.46205C17.3733 3.69799 8.32197 10.5525 6.32305 15.6287C6.08083 15.3265 5.77782 15.0848 5.35379 15.0244C4.50594 14.8431 3.65789 15.5078 3.29447 16.233C2.87045 17.1394 2.87045 18.1668 2.80985 19.1337C2.68884 20.161 2.68883 21.1883 2.68883 22.2155Z" fill="var(--fill-0, black)"/>
<path id="Vector_10" d="M23.887 59.4014C23.887 59.4014 32.4772 60.1883 37.3009 59.4597C37.3009 59.4597 37.6007 65.1809 30.2019 64.6416C24.0821 64.1963 23.887 59.4014 23.887 59.4014Z" fill="var(--fill-0, white)"/>
</g>
<path id="Vector 19" d="M22.1693 68.0726L21.8988 70.5753C22.0756 72.2106 23.3322 73.5214 24.9587 73.7669L30.1488 74.5503L35.4877 73.7593C37.1139 73.5184 38.3721 72.2096 38.5488 70.5753L38.2786 68.0759C38.2631 67.9324 38.1213 67.838 37.983 67.879L37.8484 67.9189C32.8252 69.4073 27.4764 69.3935 22.461 67.8794C22.3247 67.8383 22.1846 67.9311 22.1693 68.0726Z" fill="var(--fill-0, black)"/>
</g>
</svg>
