<svg preserveAspectRatio="none" width="100%" height="100%" overflow="visible" style="display: block;" viewBox="0 0 58.9265 75" fill="none" xmlns="http://www.w3.org/2000/svg">
<g id="Frame 24">
<g id="Group 26">
<path id="Vector" d="M7.59827 40.6863C7.20617 40.2743 6.71632 39.9681 6.17421 39.7961C5.63209 39.624 5.0553 39.5918 4.49739 39.7023C3.99324 39.9383 3.57039 40.3184 3.2823 40.7947C2.88627 41.5576 2.64887 42.3928 2.58444 43.25C2.52 44.1071 2.62985 44.9685 2.90737 45.782C3.74394 48.6997 5.63301 51.2034 8.20905 52.8086C8.51585 53.0502 8.87612 53.2147 9.25963 53.2883C9.64314 53.3619 10.0387 53.3425 10.4131 53.2316C10.8256 53.0085 11.135 52.6337 11.2761 52.1865C11.7748 50.9348 11.8671 49.558 11.5399 48.2509C11.247 45.3165 9.83544 42.6076 7.59827 40.6863Z" fill="var(--fill-0, #F7846C)"/>
<path id="Vector_2" d="M51.324 40.6863C51.7161 40.2743 52.2059 39.9681 52.748 39.7961C53.2901 39.6241 53.8669 39.5918 54.4248 39.7024C54.929 39.9383 55.3518 40.3185 55.6399 40.7947C56.036 41.5576 56.2734 42.3929 56.3378 43.25C56.4022 44.1072 56.2924 44.9685 56.0148 45.782C55.1783 48.6997 53.2892 51.2034 50.7132 52.8086C50.4064 53.0502 50.0461 53.2147 49.6626 53.2883C49.2791 53.3619 48.8835 53.3425 48.5091 53.2316C48.0967 53.0085 47.7872 52.6338 47.6461 52.1866C47.1474 50.9349 47.0552 49.558 47.3824 48.251C47.6753 45.3166 49.0868 42.6076 51.324 40.6863Z" fill="var(--fill-0, #F7846C)"/>
<path id="Vector_3" d="M9.46657 50.3879C9.64045 45.4987 7.52707 43.5975 5.46519 41.5468C6.61243 43.3391 7.46529 45.3036 7.9914 47.3656C7.17724 46.7778 6.19486 46.4689 5.19079 46.485C6.76326 47.6152 8.19854 48.9243 9.46657 50.3879Z" fill="var(--fill-0, #DD4040)"/>
<path id="Vector_4" d="M49.458 50.3878C49.2841 45.4986 51.3975 43.5974 53.4593 41.5466C52.3121 43.339 51.4592 45.3034 50.9331 47.3655C51.7473 46.7776 52.7297 46.4687 53.7337 46.4849C52.1613 47.6151 50.726 48.9242 49.458 50.3878Z" fill="var(--fill-0, #DD4040)"/>
<path id="Vector_5" d="M50.3964 38.1531C50.8562 43.897 50.6274 46.738 49.7149 52.4276C48.8906 57.5162 47.3865 62.7142 43.8119 66.6559C41.3982 69.0915 38.177 70.56 34.7554 70.7846C30.1312 71.0468 25.8151 71.524 21.5665 69.6797C18.4716 68.553 15.8032 66.4924 13.9305 63.783C12.1225 60.9426 11.7253 57.4913 11.1928 54.2136C10.4699 50.0133 10.0972 48.6977 10.0786 44.4357C10.1596 38.6032 11.0241 30.8461 14.9168 26.2748C16.7338 24.2025 18.9658 22.5349 21.4683 21.38C23.9707 20.2251 26.6879 19.6087 29.4437 19.5707C32.7774 19.6394 36.0503 20.4761 39.008 22.0157C41.9656 23.5553 44.5284 25.7563 46.4969 28.4476C48.8004 31.183 50.1671 34.5843 50.3964 38.1531Z" fill="var(--fill-0, #F7846C)"/>
<path id="Vector_6" d="M28.8695 55.3384C29.6064 52.45 30.1712 49.5204 30.5608 46.5651C31.4503 50.0249 32.1172 52.3495 33.1088 55.3384C31.704 55.3672 30.2992 55.3384 28.8695 55.3384Z" fill="var(--fill-0, #DD4040)"/>
<g id="Group 8">
<path id="Vector_7" d="M20.6982 41.3615C21.3969 41.1585 21.9557 41.2865 22.525 41.3615C23.0944 41.4364 24.2252 42.0467 24.7579 42.5794C25.3668 43.1883 26.3817 44.4858 26.5847 45.0644C26.2051 44.0557 26.1787 42.9853 25.1638 41.9704C24.1489 40.7525 22.1765 40.2394 21.1042 40.3466C19.008 40.6144 16.6785 42.0196 15.4606 45.0644C17.1233 43.5167 18.5168 41.9952 20.6982 41.3615Z" fill="var(--fill-0, #DD4040)"/>
</g>
<g id="Group 7">
<path id="Vector_8" d="M39.5188 41.3617C40.2176 41.1587 40.7763 41.2867 41.3457 41.3617C41.9151 41.4366 43.0458 42.0469 43.5785 42.5796C44.1875 43.1885 45.2024 44.486 45.4054 45.0646C45.0258 44.0559 44.9994 42.9855 43.9845 41.9706C42.9696 40.7527 40.9972 40.2396 39.9248 40.3468C37.8286 40.6146 35.4991 42.0198 34.2812 45.0646C35.944 43.5169 37.3375 41.9954 39.5188 41.3617Z" fill="var(--fill-0, #DD4040)"/>
</g>
<path id="Vector_9" d="M2.68784 22.2156C2.68784 23.9691 6.40821 40.8678 11.0843 45.23C11.2455 45.7488 11.9657 45.7711 12.1732 45.2687L11.6224 38.182C11.2831 33.8158 12.9893 29.5392 16.2411 26.6057L22.0582 21.358C22.0582 21.358 27.5481 32.705 32.0304 33.128C36.3916 33.551 35.1802 26.7826 35.1196 26.42C35.3014 26.7223 37.9665 31.9797 41.4189 32.584C44.8109 33.1883 42.691 27.4473 42.4488 26.843C42.7827 27.4678 45.5966 34.3523 48.4042 38.6703C50.0886 41.2608 52.9257 40.3785 54.4246 37.6772C54.823 36.9591 55.1654 36.3472 55.3503 36.0287C57.5915 31.9797 57.2281 26.9639 54.5629 23.2776C55.6532 23.3985 56.7434 22.7942 57.3493 21.8878C58.1367 20.5582 57.8943 18.8662 57.2281 17.5971C56.4406 16.1468 55.2291 14.9986 54.0179 13.9109C51.9583 12.1583 49.6566 10.7685 47.1127 9.80155C47.4761 9.68068 47.8395 9.43897 48.0817 9.13681C48.7482 8.41163 48.9298 7.32388 48.5057 6.47784C48.1423 5.6318 47.3549 5.08793 46.507 4.66492C45.5984 4.24191 44.6899 3.87931 43.7207 3.57717C41.7217 2.91243 39.6624 2.54983 37.6031 2.42896C33.6659 2.18725 29.7288 2.91243 26.155 4.48362C26.5791 3.09371 26.9425 1.7038 27.3665 0.374316C27.4271 0.132592 27.1847 -0.0487004 27.0031 0.0117306C25.3676 0.313885 23.7927 0.797334 22.339 1.46207C17.3723 3.69801 8.32097 10.5525 6.32206 15.6287C6.07984 15.3265 5.77682 15.0848 5.3528 15.0244C4.50494 14.8431 3.6569 15.5078 3.29347 16.233C2.86945 17.1395 2.86946 18.1668 2.80886 19.1337C2.68784 20.161 2.68784 21.1883 2.68784 22.2156Z" fill="var(--fill-0, black)"/>
<path id="Vector_10" d="M23.886 59.4012C23.886 59.4012 32.4763 60.1881 37.3 59.4594C37.3 59.4594 37.5997 65.1807 30.2009 64.6413C24.0811 64.196 23.886 59.4012 23.886 59.4012Z" fill="var(--fill-0, white)"/>
</g>
<path id="Vector 19" d="M22.1703 68.0725L21.8997 70.5752C22.0765 72.2105 23.3332 73.5213 24.9596 73.7668L30.1497 74.5502L35.4887 73.7593C37.1148 73.5184 38.3731 72.2096 38.5497 70.5752L38.2795 68.0758C38.264 67.9324 38.1223 67.838 37.9839 67.879L37.8494 67.9189C32.8262 69.4072 27.4774 69.3935 22.4619 67.8794C22.3257 67.8382 22.1856 67.931 22.1703 68.0725Z" fill="var(--fill-0, black)"/>
</g>
</svg>
