<svg width="270" height="270" viewBox="0 0 270 270" fill="none" xmlns="http://www.w3.org/2000/svg">
<g id="Frame 29" transform="translate(28.5 0)">
<g id="Group 29">
<path id="Vector" d="M27.4346 146.858C26.0193 145.371 24.2512 144.265 22.2944 143.644C20.3377 143.023 18.2557 142.907 16.2419 143.306C14.4222 144.158 12.8959 145.53 11.856 147.249C10.4266 150.003 9.56968 153.017 9.33709 156.111C9.10451 159.205 9.50104 162.314 10.5027 165.251C13.5223 175.782 20.341 184.819 29.6392 190.613C30.7466 191.485 32.047 192.079 33.4313 192.345C34.8156 192.61 36.2434 192.54 37.5949 192.14C39.0836 191.335 40.2007 189.982 40.7097 188.368C42.5098 183.85 42.8429 178.88 41.6618 174.162C40.6046 163.571 35.5097 153.793 27.4346 146.858Z" fill="#F7846C"/>
<path id="Vector_2" d="M185.255 146.858C186.67 145.371 188.438 144.265 190.395 143.644C192.352 143.023 194.434 142.907 196.448 143.306C198.267 144.158 199.794 145.53 200.833 147.249C202.263 150.003 203.12 153.017 203.352 156.111C203.585 159.205 203.188 162.314 202.187 165.251C199.167 175.782 192.348 184.819 183.05 190.613C181.943 191.485 180.642 192.079 179.258 192.345C177.874 192.61 176.446 192.54 175.095 192.14C173.606 191.335 172.489 189.982 171.98 188.368C170.18 183.85 169.847 178.88 171.028 174.162C172.085 163.571 177.18 153.793 185.255 146.858Z" fill="#F7846C"/>
<path id="Vector_3" d="M34.1716 181.876C34.7992 164.228 27.1709 157.366 19.7285 149.963C23.8695 156.433 26.9479 163.524 28.8469 170.967C25.9082 168.845 22.3623 167.73 18.7381 167.788C24.4139 171.868 29.5946 176.593 34.1716 181.876Z" fill="#DD4040"/>
<path id="Vector_4" d="M178.518 181.876C177.89 164.228 185.519 157.366 192.961 149.963C188.82 156.433 185.742 163.524 183.843 170.967C186.781 168.845 190.327 167.73 193.951 167.788C188.276 171.868 183.095 176.593 178.518 181.876Z" fill="#DD4040"/>
<path id="Vector_5" d="M181.904 137.713C183.563 158.446 182.737 168.7 179.444 189.237C176.468 207.605 171.039 226.367 158.137 240.595C149.425 249.386 137.797 254.687 125.447 255.497C108.756 256.444 93.1769 258.166 77.8416 251.509C66.6704 247.442 57.0389 240.005 50.2792 230.225C43.7533 219.972 42.3196 207.515 40.3977 195.684C37.7884 180.523 36.4431 175.774 36.3758 160.39C36.6683 139.338 39.7888 111.338 53.8395 94.8385C60.398 87.3583 68.4544 81.339 77.4871 77.1705C86.5198 73.0019 96.3273 70.7769 106.275 70.6397C118.307 70.8878 130.121 73.9079 140.797 79.4651C151.473 85.0223 160.723 92.9669 167.828 102.681C176.143 112.554 181.076 124.832 181.904 137.713Z" fill="#F7846C"/>
<path id="Vector_6" d="M104.214 199.744C106.873 189.318 108.912 178.744 110.318 168.076C113.529 180.565 115.936 188.955 119.515 199.744C114.445 199.848 109.374 199.744 104.214 199.744Z" fill="#DD4040"/>
<path id="Vector_7" d="M94.0881 120.676C85.0494 119.947 75.9242 121.408 67.5645 124.921C59.5754 128.373 52.7343 133.876 47.8252 140.797C57.4252 138.122 67.3307 136.642 77.2905 136.395C80.5624 136.284 83.7893 135.556 86.7829 134.252C89.5444 133.226 91.8222 131.267 93.1726 128.757C94.523 126.248 94.8493 123.367 94.0881 120.676Z" fill="black"/>
<path id="Vector_8" d="M122.141 120.683C131.135 119.524 140.319 120.547 148.837 123.657C156.982 126.723 164.078 131.893 169.312 138.572C159.596 136.358 149.631 135.353 139.67 135.582C136.397 135.628 133.139 135.054 130.087 133.895C127.279 133.002 124.91 131.154 123.442 128.712C121.973 126.269 121.509 123.407 122.141 120.683Z" fill="black"/>
<path id="Vector_9" d="M9.70471 80.1874C9.70471 86.5169 23.1335 147.513 40.0118 163.258C40.5937 165.131 43.1934 165.211 43.9422 163.398C41.459 131.447 53.6924 100.109 77.1657 78.2912L79.3514 76.2595C79.3514 76.2595 99.4383 118.049 115.617 119.576C131.359 121.103 126.986 96.6723 126.768 95.3633C127.424 96.4543 137.044 115.431 149.505 117.612C161.749 119.794 154.097 99.0715 153.222 96.8902C154.428 99.1455 164.585 123.995 174.719 139.581C180.799 148.931 191.039 145.747 196.449 135.996C197.887 133.404 199.123 131.196 199.791 130.046C207.88 115.431 206.568 97.3267 196.949 84.0208C200.884 84.4574 204.819 82.276 207.006 79.0044C209.848 74.2052 208.973 68.0977 206.568 63.5171C203.726 58.282 199.353 54.1376 194.981 50.2114C187.547 43.8857 179.239 38.8688 170.057 35.3788C171.369 34.9425 172.68 34.07 173.555 32.9794C175.96 30.3619 176.616 26.4356 175.085 23.3818C173.773 20.328 170.931 18.3649 167.871 16.838C164.591 15.3112 161.312 14.0024 157.813 12.9118C150.598 10.5124 143.165 9.20358 135.732 8.76732C121.52 7.89486 107.31 10.5124 94.41 16.1836C95.9405 11.1667 97.2523 6.14982 98.7828 1.35103C99.0015 0.478529 98.1265 -0.175851 97.471 0.0422763C91.5677 1.13291 85.8831 2.87792 80.636 5.27731C62.7086 13.348 30.0376 38.0893 22.8225 56.4119C21.9482 55.3213 20.8544 54.4488 19.3239 54.2307C16.2636 53.5763 13.2025 55.9757 11.8908 58.5932C10.3602 61.8651 10.3603 65.5732 10.1415 69.0633C9.70473 72.7714 9.70471 76.4796 9.70471 80.1874Z" fill="black"/>
<path id="Vector_10" d="M86.2164 214.409C86.2164 214.409 117.223 217.249 134.634 214.619C134.634 214.619 135.716 235.27 109.01 233.324C86.9206 231.716 86.2164 214.409 86.2164 214.409Z" fill="white"/>
</g>
<g id="Group">
<g id="Group_2" opacity="0.15">
<path id="Vector_11" d="M184.506 160.654H179.385V165.772H184.506V160.654Z" fill="black"/>
<path id="Vector_12" d="M184.506 155.533H179.385V160.654H184.506V155.533Z" fill="black"/>
<path id="Vector_13" d="M179.379 165.773H174.258V170.893H179.379V165.773Z" fill="black"/>
<path id="Vector_14" d="M179.379 160.654H174.258V165.772H179.379V160.654Z" fill="black"/>
<path id="Vector_15" d="M179.379 155.533H174.258V160.654H179.379V155.533Z" fill="black"/>
<path id="Vector_16" d="M179.379 150.412H174.258V155.532H179.379V150.412Z" fill="black"/>
<path id="Vector_17" d="M184.506 150.412H179.385V155.532H184.506V150.412Z" fill="black"/>
<path id="Vector_18" d="M174.261 170.893H169.141V176.014H174.261V170.893Z" fill="black"/>
<path id="Vector_19" d="M174.261 165.773H169.141V170.893H174.261V165.773Z" fill="black"/>
<path id="Vector_20" d="M174.261 160.654H169.141V165.772H174.261V160.654Z" fill="black"/>
<path id="Vector_21" d="M174.261 155.533H169.141V160.654H174.261V155.533Z" fill="black"/>
<path id="Vector_22" d="M174.261 150.412H169.141V155.533H174.261V150.412Z" fill="black"/>
<path id="Vector_23" d="M169.14 176.015H164.02V181.135H169.14V176.015Z" fill="black"/>
<path id="Vector_24" d="M169.14 170.893H164.02V176.014H169.14V170.893Z" fill="black"/>
<path id="Vector_25" d="M169.14 165.773H164.02V170.893H169.14V165.773Z" fill="black"/>
<path id="Vector_26" d="M169.14 160.654H164.02V165.772H169.14V160.654Z" fill="black"/>
<path id="Vector_27" d="M169.14 155.533H164.02V160.654H169.14V155.533Z" fill="black"/>
<path id="Vector_28" d="M169.14 150.412H164.02V155.533H169.14V150.412Z" fill="black"/>
<path id="Vector_29" d="M164.017 176.015H158.896V181.135H164.017V176.015Z" fill="black"/>
<path id="Vector_30" d="M164.017 170.893H158.896V176.014H164.017V170.893Z" fill="black"/>
<path id="Vector_31" d="M164.017 165.773H158.896V170.893H164.017V165.773Z" fill="black"/>
<path id="Vector_32" d="M164.017 160.654H158.896V165.772H164.017V160.654Z" fill="black"/>
<path id="Vector_33" d="M164.017 155.533H158.896V160.654H164.017V155.533Z" fill="black"/>
<path id="Vector_34" d="M164.017 150.412H158.896V155.532H164.017V150.412Z" fill="black"/>
<path id="Vector_35" d="M158.9 181.135H153.779V186.256H158.9V181.135Z" fill="black"/>
<path id="Vector_36" d="M158.9 176.015H153.779V181.135H158.9V176.015Z" fill="black"/>
<path id="Vector_37" d="M158.9 170.893H153.779V176.014H158.9V170.893Z" fill="black"/>
<path id="Vector_38" d="M158.9 165.773H153.779V170.893H158.9V165.773Z" fill="black"/>
<path id="Vector_39" d="M158.9 160.654H153.779V165.772H158.9V160.654Z" fill="black"/>
<path id="Vector_40" d="M158.9 155.533H153.779V160.654H158.9V155.533Z" fill="black"/>
<path id="Vector_41" d="M158.9 150.412H153.779V155.533H158.9V150.412Z" fill="black"/>
<path id="Vector_42" d="M153.777 181.135H148.656V186.256H153.777V181.135Z" fill="black"/>
<path id="Vector_43" d="M153.777 176.015H148.656V181.135H153.777V176.015Z" fill="black"/>
<path id="Vector_44" d="M153.777 170.893H148.656V176.014H153.777V170.893Z" fill="black"/>
<path id="Vector_45" d="M153.777 165.773H148.656V170.893H153.777V165.773Z" fill="black"/>
<path id="Vector_46" d="M153.777 160.654H148.656V165.772H153.777V160.654Z" fill="black"/>
<path id="Vector_47" d="M153.777 155.533H148.656V160.654H153.777V155.533Z" fill="black"/>
<path id="Vector_48" d="M153.777 150.412H148.656V155.533H153.777V150.412Z" fill="black"/>
<path id="Vector_49" d="M148.656 181.135H143.535V186.256H148.656V181.135Z" fill="black"/>
<path id="Vector_50" d="M148.656 176.015H143.535V181.135H148.656V176.015Z" fill="black"/>
<path id="Vector_51" d="M148.656 170.893H143.535V176.014H148.656V170.893Z" fill="black"/>
<path id="Vector_52" d="M148.656 165.773H143.535V170.893H148.656V165.773Z" fill="black"/>
<path id="Vector_53" d="M148.656 160.654H143.535V165.772H148.656V160.654Z" fill="black"/>
<path id="Vector_54" d="M148.656 155.533H143.535V160.654H148.656V155.533Z" fill="black"/>
<path id="Vector_55" d="M148.656 150.412H143.535V155.532H148.656V150.412Z" fill="black"/>
<path id="Vector_56" d="M143.533 181.135H138.412V186.256H143.533V181.135Z" fill="black"/>
<path id="Vector_57" d="M143.533 176.015H138.412V181.135H143.533V176.015Z" fill="black"/>
<path id="Vector_58" d="M143.533 170.893H138.412V176.014H143.533V170.893Z" fill="black"/>
<path id="Vector_59" d="M143.533 165.773H138.412V170.893H143.533V165.773Z" fill="black"/>
<path id="Vector_60" d="M143.533 160.654H138.412V165.772H143.533V160.654Z" fill="black"/>
<path id="Vector_61" d="M143.533 155.533H138.412V160.654H143.533V155.533Z" fill="black"/>
<path id="Vector_62" d="M143.533 150.412H138.412V155.533H143.533V150.412Z" fill="black"/>
<path id="Vector_63" d="M138.416 181.135H133.295V186.256H138.416V181.135Z" fill="black"/>
<path id="Vector_64" d="M138.416 176.015H133.295V181.135H138.416V176.015Z" fill="black"/>
<path id="Vector_65" d="M138.416 170.893H133.295V176.014H138.416V170.893Z" fill="black"/>
<path id="Vector_66" d="M138.416 165.773H133.295V170.893H138.416V165.773Z" fill="black"/>
<path id="Vector_67" d="M138.416 160.654H133.295V165.772H138.416V160.654Z" fill="black"/>
<path id="Vector_68" d="M138.416 155.533H133.295V160.654H138.416V155.533Z" fill="black"/>
<path id="Vector_69" d="M138.416 150.412H133.295V155.533H138.416V150.412Z" fill="black"/>
<path id="Vector_70" d="M133.292 176.015H128.174V181.135H133.292V176.015Z" fill="black"/>
<path id="Vector_71" d="M133.292 170.893H128.174V176.014H133.292V170.893Z" fill="black"/>
<path id="Vector_72" d="M133.292 165.773H128.174V170.893H133.292V165.773Z" fill="black"/>
<path id="Vector_73" d="M133.292 160.654H128.174V165.772H133.292V160.654Z" fill="black"/>
<path id="Vector_74" d="M133.292 155.533H128.174V160.654H133.292V155.533Z" fill="black"/>
<path id="Vector_75" d="M133.292 150.412H128.174V155.533H133.292V150.412Z" fill="black"/>
<path id="Vector_76" d="M128.174 176.015H123.053V181.135H128.174V176.015Z" fill="black"/>
<path id="Vector_77" d="M128.174 170.893H123.053V176.014H128.174V170.893Z" fill="black"/>
<path id="Vector_78" d="M128.174 165.773H123.053V170.893H128.174V165.773Z" fill="black"/>
<path id="Vector_79" d="M128.174 160.654H123.053V165.772H128.174V160.654Z" fill="black"/>
<path id="Vector_80" d="M128.174 155.533H123.053V160.654H128.174V155.533Z" fill="black"/>
<path id="Vector_81" d="M128.174 150.412H123.053V155.532H128.174V150.412Z" fill="black"/>
<path id="Vector_82" d="M123.056 170.893H117.936V176.014H123.056V170.893Z" fill="black"/>
<path id="Vector_83" d="M123.056 165.773H117.936V170.893H123.056V165.773Z" fill="black"/>
<path id="Vector_84" d="M123.056 160.654H117.936V165.772H123.056V160.654Z" fill="black"/>
<path id="Vector_85" d="M123.056 155.533H117.936V160.654H123.056V155.533Z" fill="black"/>
<path id="Vector_86" d="M123.056 150.412H117.936V155.532H123.056V150.412Z" fill="black"/>
<path id="Vector_87" d="M117.933 160.654H112.812V165.772H117.933V160.654Z" fill="black"/>
<path id="Vector_88" d="M117.933 155.533H112.812V160.654H117.933V155.533Z" fill="black"/>
<path id="Vector_89" d="M117.933 150.412H112.812V155.533H117.933V150.412Z" fill="black"/>
<path id="Vector_90" d="M30.8786 160.654H25.7578V165.772H30.8786V160.654Z" fill="black"/>
<path id="Vector_91" d="M30.8786 155.533H25.7578V160.654H30.8786V155.533Z" fill="black"/>
<path id="Vector_92" d="M36.0055 165.773H30.8848V170.893H36.0055V165.773Z" fill="black"/>
<path id="Vector_93" d="M36.0055 160.654H30.8848V165.772H36.0055V160.654Z" fill="black"/>
<path id="Vector_94" d="M36.0055 155.533H30.8848V160.654H36.0055V155.533Z" fill="black"/>
<path id="Vector_95" d="M36.0055 150.412H30.8848V155.532H36.0055V150.412Z" fill="black"/>
<path id="Vector_96" d="M30.8786 150.412H25.7578V155.532H30.8786V150.412Z" fill="black"/>
<path id="Vector_97" d="M41.1227 170.893H36.002V176.014H41.1227V170.893Z" fill="black"/>
<path id="Vector_98" d="M41.1227 165.773H36.002V170.893H41.1227V165.773Z" fill="black"/>
<path id="Vector_99" d="M41.1227 160.654H36.002V165.772H41.1227V160.654Z" fill="black"/>
<path id="Vector_100" d="M41.1227 155.533H36.002V160.654H41.1227V155.533Z" fill="black"/>
<path id="Vector_101" d="M41.1227 150.412H36.002V155.532H41.1227V150.412Z" fill="black"/>
<path id="Vector_102" d="M46.2458 176.015H41.125V181.135H46.2458V176.015Z" fill="black"/>
<path id="Vector_103" d="M46.2458 170.893H41.125V176.014H46.2458V170.893Z" fill="black"/>
<path id="Vector_104" d="M46.2458 165.773H41.125V170.893H46.2458V165.773Z" fill="black"/>
<path id="Vector_105" d="M46.2458 160.654H41.125V165.772H46.2458V160.654Z" fill="black"/>
<path id="Vector_106" d="M46.2458 155.533H41.125V160.654H46.2458V155.533Z" fill="black"/>
<path id="Vector_107" d="M46.2458 150.412H41.125V155.532H46.2458V150.412Z" fill="black"/>
<path id="Vector_108" d="M51.3688 176.015H46.248V181.135H51.3688V176.015Z" fill="black"/>
<path id="Vector_109" d="M51.3688 170.893H46.248V176.014H51.3688V170.893Z" fill="black"/>
<path id="Vector_110" d="M51.3688 165.773H46.248V170.893H51.3688V165.773Z" fill="black"/>
<path id="Vector_111" d="M51.3688 160.654H46.248V165.772H51.3688V160.654Z" fill="black"/>
<path id="Vector_112" d="M51.3688 155.533H46.248V160.654H51.3688V155.533Z" fill="black"/>
<path id="Vector_113" d="M51.3688 150.412H46.248V155.532H51.3688V150.412Z" fill="black"/>
<path id="Vector_114" d="M56.4899 181.135H51.3691V186.256H56.4899V181.135Z" fill="black"/>
<path id="Vector_115" d="M56.4899 176.015H51.3691V181.135H56.4899V176.015Z" fill="black"/>
<path id="Vector_116" d="M56.4899 170.893H51.3691V176.014H56.4899V170.893Z" fill="black"/>
<path id="Vector_117" d="M56.4899 165.773H51.3691V170.893H56.4899V165.773Z" fill="black"/>
<path id="Vector_118" d="M56.4899 160.654H51.3691V165.772H56.4899V160.654Z" fill="black"/>
<path id="Vector_119" d="M56.4899 155.533H51.3691V160.654H56.4899V155.533Z" fill="black"/>
<path id="Vector_120" d="M56.4899 150.412H51.3691V155.532H56.4899V150.412Z" fill="black"/>
<path id="Vector_121" d="M61.6071 181.135H56.4863V186.256H61.6071V181.135Z" fill="black"/>
<path id="Vector_122" d="M61.6071 176.015H56.4863V181.135H61.6071V176.015Z" fill="black"/>
<path id="Vector_123" d="M61.6071 170.893H56.4863V176.014H61.6071V170.893Z" fill="black"/>
<path id="Vector_124" d="M61.6071 165.773H56.4863V170.893H61.6071V165.773Z" fill="black"/>
<path id="Vector_125" d="M61.6071 160.654H56.4863V165.772H61.6071V160.654Z" fill="black"/>
<path id="Vector_126" d="M61.6071 155.533H56.4863V160.654H61.6071V155.533Z" fill="black"/>
<path id="Vector_127" d="M61.6071 150.412H56.4863V155.532H61.6071V150.412Z" fill="black"/>
<path id="Vector_128" d="M66.7282 181.135H61.6074V186.256H66.7282V181.135Z" fill="black"/>
<path id="Vector_129" d="M66.7282 176.015H61.6074V181.135H66.7282V176.015Z" fill="black"/>
<path id="Vector_130" d="M66.7282 170.893H61.6074V176.014H66.7282V170.893Z" fill="black"/>
<path id="Vector_131" d="M66.7282 165.773H61.6074V170.893H66.7282V165.773Z" fill="black"/>
<path id="Vector_132" d="M66.7282 160.654H61.6074V165.772H66.7282V160.654Z" fill="black"/>
<path id="Vector_133" d="M66.7282 155.533H61.6074V160.654H66.7282V155.533Z" fill="black"/>
<path id="Vector_134" d="M66.7282 150.412H61.6074V155.532H66.7282V150.412Z" fill="black"/>
<path id="Vector_135" d="M71.8512 181.135H66.7305V186.256H71.8512V181.135Z" fill="black"/>
<path id="Vector_136" d="M71.8512 176.015H66.7305V181.135H71.8512V176.015Z" fill="black"/>
<path id="Vector_137" d="M71.8512 170.893H66.7305V176.014H71.8512V170.893Z" fill="black"/>
<path id="Vector_138" d="M71.8512 165.773H66.7305V170.893H71.8512V165.773Z" fill="black"/>
<path id="Vector_139" d="M71.8512 160.654H66.7305V165.772H71.8512V160.654Z" fill="black"/>
<path id="Vector_140" d="M71.8512 155.533H66.7305V160.654H71.8512V155.533Z" fill="black"/>
<path id="Vector_141" d="M71.8512 150.412H66.7305V155.532H71.8512V150.412Z" fill="black"/>
<path id="Vector_142" d="M76.9743 181.135H71.8535V186.256H76.9743V181.135Z" fill="black"/>
<path id="Vector_143" d="M76.9743 176.015H71.8535V181.135H76.9743V176.015Z" fill="black"/>
<path id="Vector_144" d="M76.9743 170.893H71.8535V176.014H76.9743V170.893Z" fill="black"/>
<path id="Vector_145" d="M76.9743 165.773H71.8535V170.893H76.9743V165.773Z" fill="black"/>
<path id="Vector_146" d="M76.9743 160.654H71.8535V165.772H76.9743V160.654Z" fill="black"/>
<path id="Vector_147" d="M76.9743 155.533H71.8535V160.654H76.9743V155.533Z" fill="black"/>
<path id="Vector_148" d="M76.9743 150.412H71.8535V155.532H76.9743V150.412Z" fill="black"/>
<path id="Vector_149" d="M82.0927 176.015H76.9746V181.135H82.0927V176.015Z" fill="black"/>
<path id="Vector_150" d="M82.0927 170.893H76.9746V176.014H82.0927V170.893Z" fill="black"/>
<path id="Vector_151" d="M82.0927 165.773H76.9746V170.893H82.0927V165.773Z" fill="black"/>
<path id="Vector_152" d="M82.0927 160.654H76.9746V165.772H82.0927V160.654Z" fill="black"/>
<path id="Vector_153" d="M82.0927 155.533H76.9746V160.654H82.0927V155.533Z" fill="black"/>
<path id="Vector_154" d="M82.0927 150.412H76.9746V155.532H82.0927V150.412Z" fill="black"/>
<path id="Vector_155" d="M87.2126 176.015H82.0918V181.135H87.2126V176.015Z" fill="black"/>
<path id="Vector_156" d="M87.2126 170.893H82.0918V176.014H87.2126V170.893Z" fill="black"/>
<path id="Vector_157" d="M87.2126 165.773H82.0918V170.893H87.2126V165.773Z" fill="black"/>
<path id="Vector_158" d="M87.2126 160.654H82.0918V165.772H87.2126V160.654Z" fill="black"/>
<path id="Vector_159" d="M87.2126 155.533H82.0918V160.654H87.2126V155.533Z" fill="black"/>
<path id="Vector_160" d="M87.2126 150.412H82.0918V155.532H87.2126V150.412Z" fill="black"/>
<path id="Vector_161" d="M92.3337 170.893H87.2129V176.014H92.3337V170.893Z" fill="black"/>
<path id="Vector_162" d="M92.3337 165.773H87.2129V170.893H92.3337V165.773Z" fill="black"/>
<path id="Vector_163" d="M92.3337 160.654H87.2129V165.772H92.3337V160.654Z" fill="black"/>
<path id="Vector_164" d="M92.3337 155.533H87.2129V160.654H92.3337V155.533Z" fill="black"/>
<path id="Vector_165" d="M92.3337 150.412H87.2129V155.533H92.3337V150.412Z" fill="black"/>
<path id="Vector_166" d="M97.4509 160.654H92.3301V165.772H97.4509V160.654Z" fill="black"/>
<path id="Vector_167" d="M97.4509 155.533H92.3301V160.654H97.4509V155.533Z" fill="black"/>
<path id="Vector_168" d="M102.574 155.533H97.4531V160.654H102.574V155.533Z" fill="black"/>
<path id="Vector_169" d="M107.695 150.412H102.574V155.533H107.695V150.412Z" fill="black"/>
<path id="Vector_170" d="M112.818 150.412H107.697V155.532H112.818V150.412Z" fill="black"/>
<path id="Vector_171" d="M112.818 155.533H107.697V160.654H112.818V155.533Z" fill="black"/>
<path id="Vector_172" d="M97.4509 150.412H92.3301V155.532H97.4509V150.412Z" fill="black"/>
<path id="Vector_173" d="M102.574 150.412H97.4531V155.532H102.574V150.412Z" fill="black"/>
</g>
<g id="Group_3">
<g id="Group_4">
<g id="XMLID_00000039112421679981023150000017993923962968569777_">
<g id="Group_5">
<path id="Vector_174" d="M189.607 155.548H184.486V160.666H189.607V155.548Z" fill="#1A1A1A"/>
<path id="Vector_175" d="M189.607 150.426H184.486V155.547H189.607V150.426Z" fill="#1A1A1A"/>
<path id="Vector_176" d="M184.486 160.666H179.365V165.787H184.486V160.666Z" fill="#1A1A1A"/>
<path id="Vector_177" d="M184.486 155.548H179.365V160.666H184.486V155.548Z" fill="#333333"/>
<path id="Vector_178" d="M184.486 150.426H179.365V155.547H184.486V150.426Z" fill="#333333"/>
<path id="Vector_179" d="M184.486 145.306H179.365V150.426H184.486V145.306Z" fill="#1A1A1A"/>
<path id="Vector_180" d="M189.607 145.306H184.486V150.426H189.607V145.306Z" fill="#1A1A1A"/>
<path id="Vector_181" d="M179.369 165.787H174.248V170.908H179.369V165.787Z" fill="#1A1A1A"/>
<path id="Vector_182" d="M179.369 160.666H174.248V165.787H179.369V160.666Z" fill="#333333"/>
<path id="Vector_183" d="M179.369 155.548H174.248V160.666H179.369V155.548Z" fill="#333333"/>
<path id="Vector_184" d="M179.369 150.426H174.248V155.547H179.369V150.426Z" fill="#333333"/>
<path id="Vector_185" d="M179.369 145.306H174.248V150.426H179.369V145.306Z" fill="#1A1A1A"/>
<path id="Vector_186" d="M174.248 170.907H169.127V176.028H174.248V170.907Z" fill="#1A1A1A"/>
<path id="Vector_187" d="M174.248 165.787H169.127V170.908H174.248V165.787Z" fill="#333333"/>
<path id="Vector_188" d="M174.248 160.666H169.127V165.787H174.248V160.666Z" fill="#333333"/>
<path id="Vector_189" d="M174.248 155.548H169.127V160.666H174.248V155.548Z" fill="#333333"/>
<path id="Vector_190" d="M174.248 150.426H169.127V155.547H174.248V150.426Z" fill="#333333"/>
<path id="Vector_191" d="M174.248 145.306H169.127V150.426H174.248V145.306Z" fill="#1A1A1A"/>
<path id="Vector_192" d="M169.125 170.907H164.004V176.028H169.125V170.907Z" fill="#1A1A1A"/>
<path id="Vector_193" d="M169.125 165.787H164.004V170.908H169.125V165.787Z" fill="#333333"/>
<path id="Vector_194" d="M169.125 160.666H164.004V165.787H169.125V160.666Z" fill="#333333"/>
<path id="Vector_195" d="M169.125 155.548H164.004V160.666H169.125V155.548Z" fill="#333333"/>
<path id="Vector_196" d="M169.125 150.426H164.004V155.547H169.125V150.426Z" fill="#333333"/>
<path id="Vector_197" d="M169.125 145.306H164.004V150.426H169.125V145.306Z" fill="#1A1A1A"/>
<path id="Vector_198" d="M164.007 176.03H158.887V181.15H164.007V176.03Z" fill="#1A1A1A"/>
<path id="Vector_199" d="M164.007 170.907H158.887V176.028H164.007V170.907Z" fill="#333333"/>
<path id="Vector_200" d="M164.007 165.787H158.887V170.908H164.007V165.787Z" fill="#333333"/>
<path id="Vector_201" d="M164.007 160.666H158.887V165.787H164.007V160.666Z" fill="#333333"/>
<path id="Vector_202" d="M164.007 155.548H158.887V160.666H164.007V155.548Z" fill="#333333"/>
<path id="Vector_203" d="M164.007 150.426H158.887V155.547H164.007V150.426Z" fill="#333333"/>
<path id="Vector_204" d="M164.007 145.306H158.887V150.426H164.007V145.306Z" fill="#1A1A1A"/>
<path id="Vector_205" d="M158.884 176.029H153.764V181.149H158.884V176.029Z" fill="#1A1A1A"/>
<path id="Vector_206" d="M158.884 170.907H153.764V176.028H158.884V170.907Z" fill="#333333"/>
<path id="Vector_207" d="M158.884 165.787H153.764V170.908H158.884V165.787Z" fill="#333333"/>
<path id="Vector_208" d="M158.884 160.666H153.764V165.787H158.884V160.666Z" fill="#333333"/>
<path id="Vector_209" d="M158.884 155.548H153.764V160.666H158.884V155.548Z" fill="#333333"/>
<path id="Vector_210" d="M158.884 150.426H153.764V155.547H158.884V150.426Z" fill="#333333"/>
<path id="Vector_211" d="M158.884 145.306H153.764V150.426H158.884V145.306Z" fill="#1A1A1A"/>
<path id="Vector_212" d="M153.763 176.03H148.643V181.15H153.763V176.03Z" fill="#1A1A1A"/>
<path id="Vector_213" d="M153.763 170.907H148.643V176.028H153.763V170.907Z" fill="#333333"/>
<path id="Vector_214" d="M153.763 165.787H148.643V170.908H153.763V165.787Z" fill="#333333"/>
<path id="Vector_215" d="M153.763 160.666H148.643V165.787H153.763V160.666Z" fill="#333333"/>
<path id="Vector_216" d="M153.763 155.548H148.643V160.666H153.763V155.548Z" fill="#333333"/>
<path id="Vector_217" d="M153.763 150.426H148.643V155.547H153.763V150.426Z" fill="#333333"/>
<path id="Vector_218" d="M153.763 145.306H148.643V150.426H153.763V145.306Z" fill="#1A1A1A"/>
<path id="Vector_219" d="M148.646 176.03H143.525V181.15H148.646V176.03Z" fill="#1A1A1A"/>
<path id="Vector_220" d="M148.646 170.907H143.525V176.028H148.646V170.907Z" fill="#333333"/>
<path id="Vector_221" d="M148.646 165.787H143.525V170.908H148.646V165.787Z" fill="#333333"/>
<path id="Vector_222" d="M148.646 160.666H143.525V165.787H148.646V160.666Z" fill="#333333"/>
<path id="Vector_223" d="M148.646 155.548H143.525V160.666H148.646V155.548Z" fill="#333333"/>
<path id="Vector_224" d="M148.646 150.426H143.525V155.547H148.646V150.426Z" fill="#333333"/>
<path id="Vector_225" d="M148.646 145.306H143.525V150.426H148.646V145.306Z" fill="#1A1A1A"/>
<path id="Vector_226" d="M143.519 176.029H138.398V181.149H143.519V176.029Z" fill="#1A1A1A"/>
<path id="Vector_227" d="M143.519 170.907H138.398V176.028H143.519V170.907Z" fill="#333333"/>
<path id="Vector_228" d="M143.519 165.787H138.398V170.908H143.519V165.787Z" fill="white"/>
<path id="Vector_229" d="M143.519 160.666H138.398V165.787H143.519V160.666Z" fill="#333333"/>
<path id="Vector_230" d="M143.519 155.548H138.398V160.666H143.519V155.548Z" fill="white"/>
<path id="Vector_231" d="M143.519 150.426H138.398V155.547H143.519V150.426Z" fill="#333333"/>
<path id="Vector_232" d="M143.519 145.306H138.398V150.426H143.519V145.306Z" fill="#1A1A1A"/>
<path id="Vector_233" d="M138.399 170.907H133.281V176.028H138.399V170.907Z" fill="#1A1A1A"/>
<path id="Vector_234" d="M138.399 165.787H133.281V170.908H138.399V165.787Z" fill="#333333"/>
<path id="Vector_235" d="M138.399 160.666H133.281V165.787H138.399V160.666Z" fill="white"/>
<path id="Vector_236" d="M138.399 155.548H133.281V160.666H138.399V155.548Z" fill="#333333"/>
<path id="Vector_237" d="M138.399 150.426H133.281V155.547H138.399V150.426Z" fill="white"/>
<path id="Vector_238" d="M138.399 145.306H133.281V150.426H138.399V145.306Z" fill="#1A1A1A"/>
<path id="Vector_239" d="M133.281 170.907H128.16V176.028H133.281V170.907Z" fill="#1A1A1A"/>
<path id="Vector_240" d="M133.281 165.787H128.16V170.908H133.281V165.787Z" fill="#333333"/>
<path id="Vector_241" d="M133.281 160.666H128.16V165.787H133.281V160.666Z" fill="#333333"/>
<path id="Vector_242" d="M133.281 155.548H128.16V160.666H133.281V155.548Z" fill="white"/>
<path id="Vector_243" d="M133.281 150.426H128.16V155.547H133.281V150.426Z" fill="#333333"/>
<path id="Vector_244" d="M133.281 145.306H128.16V150.426H133.281V145.306Z" fill="#1A1A1A"/>
<path id="Vector_245" d="M128.158 165.787H123.037V170.908H128.158V165.787Z" fill="#1A1A1A"/>
<path id="Vector_246" d="M128.158 160.666H123.037V165.787H128.158V160.666Z" fill="#1A1A1A"/>
<path id="Vector_247" d="M128.158 155.548H123.037V160.666H128.158V155.548Z" fill="#333333"/>
<path id="Vector_248" d="M128.158 150.426H123.037V155.547H128.158V150.426Z" fill="white"/>
<path id="Vector_249" d="M128.158 145.306H123.037V150.426H128.158V145.306Z" fill="#1A1A1A"/>
<path id="Vector_250" d="M123.041 155.548H117.92V160.666H123.041V155.548Z" fill="#1A1A1A"/>
<path id="Vector_251" d="M123.041 150.426H117.92V155.547H123.041V150.426Z" fill="#333333"/>
<path id="Vector_252" d="M123.041 145.306H117.92V150.426H123.041V145.306Z" fill="#1A1A1A"/>
</g>
</g>
<g id="XMLID_00000108276982016620260190000012187319257717516685_">
<g id="Group_6">
<path id="Vector_253" d="M35.9704 155.548H30.8496V160.666H35.9704V155.548Z" fill="#1A1A1A"/>
<path id="Vector_254" d="M35.9704 150.426H30.8496V155.547H35.9704V150.426Z" fill="#1A1A1A"/>
<path id="Vector_255" d="M41.0934 160.666H35.9727V165.787H41.0934V160.666Z" fill="#1A1A1A"/>
<path id="Vector_256" d="M41.0934 155.548H35.9727V160.666H41.0934V155.548Z" fill="#333333"/>
<path id="Vector_257" d="M41.0934 150.426H35.9727V155.547H41.0934V150.426Z" fill="#333333"/>
<path id="Vector_258" d="M41.0934 145.305H35.9727V150.426H41.0934V145.305Z" fill="#1A1A1A"/>
<path id="Vector_259" d="M35.9704 145.305H30.8496V150.426H35.9704V145.305Z" fill="#1A1A1A"/>
<path id="Vector_260" d="M46.2126 165.787H41.0918V170.908H46.2126V165.787Z" fill="#1A1A1A"/>
<path id="Vector_261" d="M46.2126 160.666H41.0918V165.787H46.2126V160.666Z" fill="#333333"/>
<path id="Vector_262" d="M46.2126 155.548H41.0918V160.666H46.2126V155.548Z" fill="#333333"/>
<path id="Vector_263" d="M46.2126 150.426H41.0918V155.547H46.2126V150.426Z" fill="white"/>
<path id="Vector_264" d="M46.2126 145.305H41.0918V150.426H46.2126V145.305Z" fill="#1A1A1A"/>
<path id="Vector_265" d="M51.3376 170.907H46.2168V176.028H51.3376V170.907Z" fill="#1A1A1A"/>
<path id="Vector_266" d="M51.3376 165.787H46.2168V170.908H51.3376V165.787Z" fill="#333333"/>
<path id="Vector_267" d="M51.3376 160.666H46.2168V165.787H51.3376V160.666Z" fill="#333333"/>
<path id="Vector_268" d="M51.3376 155.548H46.2168V160.666H51.3376V155.548Z" fill="white"/>
<path id="Vector_269" d="M51.3376 150.426H46.2168V155.547H51.3376V150.426Z" fill="#333333"/>
<path id="Vector_270" d="M51.3376 145.305H46.2168V150.426H51.3376V145.305Z" fill="#1A1A1A"/>
<path id="Vector_271" d="M56.4548 170.907H51.334V176.028H56.4548V170.907Z" fill="#1A1A1A"/>
<path id="Vector_272" d="M56.4548 165.787H51.334V170.908H56.4548V165.787Z" fill="#333333"/>
<path id="Vector_273" d="M56.4548 160.666H51.334V165.787H56.4548V160.666Z" fill="white"/>
<path id="Vector_274" d="M56.4548 155.548H51.334V160.666H56.4548V155.548Z" fill="#333333"/>
<path id="Vector_275" d="M56.4548 150.426H51.334V155.547H56.4548V150.426Z" fill="white"/>
<path id="Vector_276" d="M56.4548 145.305H51.334V150.426H56.4548V145.305Z" fill="#1A1A1A"/>
<path id="Vector_277" d="M61.5798 176.029H56.459V181.149H61.5798V176.029Z" fill="#1A1A1A"/>
<path id="Vector_278" d="M61.5798 170.907H56.459V176.028H61.5798V170.907Z" fill="#333333"/>
<path id="Vector_279" d="M61.5798 165.787H56.459V170.908H61.5798V165.787Z" fill="white"/>
<path id="Vector_280" d="M61.5798 160.666H56.459V165.787H61.5798V160.666Z" fill="#333333"/>
<path id="Vector_281" d="M61.5798 155.548H56.459V160.666H61.5798V155.548Z" fill="white"/>
<path id="Vector_282" d="M61.5798 150.426H56.459V155.547H61.5798V150.426Z" fill="#333333"/>
<path id="Vector_283" d="M61.5798 145.305H56.459V150.426H61.5798V145.305Z" fill="#1A1A1A"/>
<path id="Vector_284" d="M66.6989 176.029H61.5781V181.149H66.6989V176.029Z" fill="#1A1A1A"/>
<path id="Vector_285" d="M66.6989 170.907H61.5781V176.028H66.6989V170.907Z" fill="#333333"/>
<path id="Vector_286" d="M66.6989 165.787H61.5781V170.908H66.6989V165.787Z" fill="#333333"/>
<path id="Vector_287" d="M66.6989 160.666H61.5781V165.787H66.6989V160.666Z" fill="#333333"/>
<path id="Vector_288" d="M66.6989 155.548H61.5781V160.666H66.6989V155.548Z" fill="#333333"/>
<path id="Vector_289" d="M66.6989 150.426H61.5781V155.547H66.6989V150.426Z" fill="#333333"/>
<path id="Vector_290" d="M66.6989 145.305H61.5781V150.426H66.6989V145.305Z" fill="#1A1A1A"/>
<path id="Vector_291" d="M71.822 176.029H66.7012V181.149H71.822V176.029Z" fill="#1A1A1A"/>
<path id="Vector_292" d="M71.822 170.907H66.7012V176.028H71.822V170.907Z" fill="#333333"/>
<path id="Vector_293" d="M71.822 165.787H66.7012V170.908H71.822V165.787Z" fill="#333333"/>
<path id="Vector_294" d="M71.822 160.666H66.7012V165.787H71.822V160.666Z" fill="#333333"/>
<path id="Vector_295" d="M71.822 155.548H66.7012V160.666H71.822V155.548Z" fill="#333333"/>
<path id="Vector_296" d="M71.822 150.426H66.7012V155.547H71.822V150.426Z" fill="#333333"/>
<path id="Vector_297" d="M71.822 145.305H66.7012V150.426H71.822V145.305Z" fill="#1A1A1A"/>
<path id="Vector_298" d="M76.9411 176.029H71.8203V181.149H76.9411V176.029Z" fill="#1A1A1A"/>
<path id="Vector_299" d="M76.9411 170.907H71.8203V176.028H76.9411V170.907Z" fill="#333333"/>
<path id="Vector_300" d="M76.9411 165.787H71.8203V170.908H76.9411V165.787Z" fill="#333333"/>
<path id="Vector_301" d="M76.9411 160.666H71.8203V165.787H76.9411V160.666Z" fill="#333333"/>
<path id="Vector_302" d="M76.9411 155.548H71.8203V160.666H76.9411V155.548Z" fill="#333333"/>
<path id="Vector_303" d="M76.9411 150.426H71.8203V155.547H76.9411V150.426Z" fill="#333333"/>
<path id="Vector_304" d="M76.9411 145.305H71.8203V150.426H76.9411V145.305Z" fill="#1A1A1A"/>
<path id="Vector_305" d="M82.0602 176.029H76.9395V181.149H82.0602V176.029Z" fill="#1A1A1A"/>
<path id="Vector_306" d="M82.0602 170.907H76.9395V176.028H82.0602V170.907Z" fill="#333333"/>
<path id="Vector_307" d="M82.0602 165.787H76.9395V170.908H82.0602V165.787Z" fill="#333333"/>
<path id="Vector_308" d="M82.0602 160.666H76.9395V165.787H82.0602V160.666Z" fill="#333333"/>
<path id="Vector_309" d="M82.0602 155.548H76.9395V160.666H82.0602V155.548Z" fill="#333333"/>
<path id="Vector_310" d="M82.0602 150.426H76.9395V155.547H82.0602V150.426Z" fill="#333333"/>
<path id="Vector_311" d="M82.0602 145.305H76.9395V150.426H82.0602V145.305Z" fill="#1A1A1A"/>
<path id="Vector_312" d="M87.1806 170.907H82.0625V176.028H87.1806V170.907Z" fill="#1A1A1A"/>
<path id="Vector_313" d="M87.1806 165.787H82.0625V170.908H87.1806V165.787Z" fill="#333333"/>
<path id="Vector_314" d="M87.1806 160.666H82.0625V165.787H87.1806V160.666Z" fill="#333333"/>
<path id="Vector_315" d="M87.1806 155.548H82.0625V160.666H87.1806V155.548Z" fill="#333333"/>
<path id="Vector_316" d="M87.1806 150.426H82.0625V155.547H87.1806V150.426Z" fill="#333333"/>
<path id="Vector_317" d="M87.1806 145.305H82.0625V150.426H87.1806V145.305Z" fill="#1A1A1A"/>
<path id="Vector_318" d="M92.2985 170.907H87.1777V176.028H92.2985V170.907Z" fill="#1A1A1A"/>
<path id="Vector_319" d="M92.2985 165.787H87.1777V170.908H92.2985V165.787Z" fill="#333333"/>
<path id="Vector_320" d="M92.2985 160.666H87.1777V165.787H92.2985V160.666Z" fill="#333333"/>
<path id="Vector_321" d="M92.2985 155.548H87.1777V160.666H92.2985V155.548Z" fill="#333333"/>
<path id="Vector_322" d="M92.2985 150.426H87.1777V155.547H92.2985V150.426Z" fill="#333333"/>
<path id="Vector_323" d="M92.2985 145.306H87.1777V150.426H92.2985V145.306Z" fill="#1A1A1A"/>
<path id="Vector_324" d="M97.4216 165.787H92.3008V170.908H97.4216V165.787Z" fill="#1A1A1A"/>
<path id="Vector_325" d="M97.4216 160.666H92.3008V165.787H97.4216V160.666Z" fill="#1A1A1A"/>
<path id="Vector_326" d="M97.4216 155.548H92.3008V160.666H97.4216V155.548Z" fill="#333333"/>
<path id="Vector_327" d="M97.4216 150.426H92.3008V155.547H97.4216V150.426Z" fill="#333333"/>
<path id="Vector_328" d="M97.4216 145.306H92.3008V150.426H97.4216V145.306Z" fill="#1A1A1A"/>
<path id="Vector_329" d="M102.545 155.548H97.4238V160.666H102.545V155.548Z" fill="#1A1A1A"/>
<path id="Vector_330" d="M102.545 150.426H97.4238V155.547H102.545V150.426Z" fill="#333333"/>
<path id="Vector_331" d="M107.664 150.426H102.543V155.547H107.664V150.426Z" fill="#1A1A1A"/>
<path id="Vector_332" d="M112.785 145.306H107.664V150.426H112.785V145.306Z" fill="#1A1A1A"/>
<path id="Vector_333" d="M117.904 145.306H112.783V150.426H117.904V145.306Z" fill="#1A1A1A"/>
<path id="Vector_334" d="M117.904 150.426H112.783V155.547H117.904V150.426Z" fill="#1A1A1A"/>
<path id="Vector_335" d="M102.545 145.306H97.4238V150.426H102.545V145.306Z" fill="#1A1A1A"/>
<path id="Vector_336" d="M107.664 145.306H102.543V150.426H107.664V145.306Z" fill="#1A1A1A"/>
</g>
</g>
</g>
</g>
</g>
<path id="Vector 19" d="M82.3396 243.111L81.4102 251.708C82.0175 257.325 86.3343 261.828 91.9213 262.671L109.75 265.362L128.09 262.645C133.676 261.818 137.998 257.322 138.605 251.708L137.677 243.122C137.623 242.629 137.137 242.305 136.661 242.446L136.199 242.583C118.944 247.695 100.57 247.648 83.3414 242.447C82.8734 242.306 82.3921 242.625 82.3396 243.111Z" fill="black"/>
</g>
</svg>
