<svg preserveAspectRatio="none" width="100%" height="100%" overflow="visible" style="display: block;" viewBox="0 0 43.2443 55" fill="none" xmlns="http://www.w3.org/2000/svg">
<g id="Frame 29">
<g id="Group 29">
<path id="Vector" d="M5.58918 29.9154C5.30088 29.6125 4.94071 29.3873 4.54211 29.2609C4.14351 29.1344 3.71941 29.1107 3.30919 29.1919C2.93851 29.3654 2.62759 29.6449 2.41577 29.9951C2.12458 30.5561 1.95003 31.1702 1.90265 31.8004C1.85527 32.4307 1.93605 33.064 2.1401 33.6621C2.7552 35.8074 4.14418 37.6483 6.03828 38.8286C6.26385 39.0062 6.52875 39.1272 6.81073 39.1813C7.09272 39.2354 7.38356 39.2211 7.65888 39.1396C7.96213 38.9756 8.18967 38.7 8.29338 38.3712C8.66006 37.4509 8.72791 36.4385 8.48732 35.4775C8.27196 33.3199 7.23411 31.3281 5.58918 29.9154Z" fill="var(--fill-0, #F7846C)"/>
<path id="Vector_2" d="M37.7373 29.9154C38.0256 29.6124 38.3858 29.3873 38.7844 29.2608C39.183 29.1343 39.6071 29.1106 40.0173 29.1919C40.388 29.3654 40.6989 29.6449 40.9107 29.9951C41.2019 30.556 41.3765 31.1701 41.4238 31.8004C41.4712 32.4306 41.3904 33.0639 41.1864 33.6621C40.5713 35.8074 39.1823 37.6483 37.2882 38.8285C37.0626 39.0062 36.7977 39.1271 36.5157 39.1813C36.2338 39.2354 35.9429 39.2211 35.6676 39.1396C35.3644 38.9755 35.1368 38.7 35.0331 38.3712C34.6664 37.4508 34.5986 36.4385 34.8392 35.4774C35.0545 33.3198 36.0924 31.328 37.7373 29.9154Z" fill="var(--fill-0, #F7846C)"/>
<path id="Vector_3" d="M6.96164 37.0487C7.08948 33.4538 5.53557 32.0559 4.01953 30.5481C4.86306 31.866 5.49015 33.3104 5.87699 34.8265C5.27836 34.3943 4.55604 34.1672 3.81777 34.179C4.97397 35.0101 6.02929 35.9726 6.96164 37.0487Z" fill="var(--fill-0, #DD4040)"/>
<path id="Vector_4" d="M36.3645 37.0487C36.2367 33.4538 37.7906 32.0559 39.3066 30.5481C38.4631 31.866 37.836 33.3104 37.4492 34.8265C38.0478 34.3943 38.7701 34.1672 39.5084 34.179C38.3522 35.0101 37.2969 35.9726 36.3645 37.0487Z" fill="var(--fill-0, #DD4040)"/>
<path id="Vector_5" d="M37.0551 28.0527C37.3931 32.2761 37.2249 34.3649 36.554 38.5483C35.9479 42.2899 34.842 46.1118 32.2137 49.01C30.439 50.8009 28.0705 51.8806 25.5547 52.0457C22.1547 52.2385 18.9811 52.5894 15.8573 51.2334C13.5817 50.4049 11.6197 48.8898 10.2427 46.8977C8.91337 44.8092 8.62132 42.2715 8.22983 39.8615C7.6983 36.7732 7.42426 35.8058 7.41054 32.6721C7.47014 28.3836 8.10578 22.6801 10.968 19.319C12.304 17.7952 13.9451 16.5691 15.7851 15.7199C17.6251 14.8708 19.6229 14.4175 21.6492 14.3896C24.1003 14.4401 26.5068 15.0553 28.6815 16.1873C30.8562 17.3194 32.7405 18.9377 34.1879 20.9165C35.8816 22.9278 36.8865 25.4287 37.0551 28.0527Z" fill="var(--fill-0, #F7846C)"/>
<path id="Vector_6" d="M21.2293 40.6885C21.7711 38.5648 22.1863 36.4108 22.4728 34.2378C23.1268 36.7817 23.6172 38.4909 24.3463 40.6885C23.3133 40.7097 22.2805 40.6885 21.2293 40.6885Z" fill="var(--fill-0, #DD4040)"/>
<g id="Group 11">
<path id="Vector_7" d="M11.4778 32.1544C12.8897 29.8695 14.6845 28.6367 16.4762 28.6969C17.4303 28.7591 18.3376 29.1331 19.0585 29.7613C19.7794 30.3895 20.2739 31.2371 20.4661 32.1738C19.2333 33.1349 17.6981 33.6247 16.1364 33.555C14.4669 33.6527 12.8166 33.1566 11.4778 32.1544Z" fill="var(--fill-0, white)"/>
<circle id="Ellipse 1" cx="16.0201" cy="31.1632" r="2.22416" fill="var(--fill-0, black)"/>
<path id="Vector_8" d="M15.6881 29.1695C16.2599 29.0033 16.7173 29.1081 17.1833 29.1695C17.6493 29.2308 18.5748 29.7303 19.0108 30.1663C19.5092 30.6647 20.3399 31.7266 20.506 32.2002C20.1953 31.3746 20.1737 30.4986 19.3431 29.6679C18.5124 28.6711 16.8981 28.2511 16.0204 28.3388C14.3047 28.558 12.3981 29.7081 11.4012 32.2002C12.7622 30.9334 13.9027 29.6882 15.6881 29.1695Z" fill="var(--fill-0, #DD4040)"/>
</g>
<g id="Group 12">
<path id="Vector_9" d="M24.1038 32.1544C25.5156 29.8695 27.3105 28.6367 29.1021 28.6969C30.0563 28.7591 30.9636 29.1331 31.6845 29.7613C32.4053 30.3895 32.8999 31.2371 33.0921 32.1738C31.8593 33.1349 30.324 33.6247 28.7624 33.555C27.0929 33.6527 25.4426 33.1566 24.1038 32.1544Z" fill="var(--fill-0, white)"/>
<circle id="Ellipse 2" cx="28.646" cy="31.1631" r="2.22416" fill="var(--fill-0, black)"/>
<path id="Vector_10" d="M28.3132 29.1695C28.8851 29.0033 29.3424 29.1081 29.8085 29.1694C30.2745 29.2308 31.2 29.7303 31.6359 30.1663C32.1344 30.6647 32.965 31.7266 33.1312 32.2002C32.8205 31.3746 32.7989 30.4985 31.9682 29.6679C31.1375 28.671 29.5232 28.2511 28.6455 28.3388C26.9298 28.558 25.0232 29.7081 24.0264 32.2002C25.3873 30.9334 26.5278 29.6881 28.3132 29.1695Z" fill="var(--fill-0, #DD4040)"/>
</g>
<path id="Vector_11" d="M19.1672 24.5822C17.326 24.4338 15.4671 24.7313 13.7642 25.447C12.1368 26.1502 10.7432 27.2711 9.74326 28.6811C11.6988 28.1361 13.7166 27.8346 15.7454 27.7843C16.4119 27.7617 17.0693 27.6133 17.6791 27.3478C18.2416 27.1387 18.7056 26.7397 18.9807 26.2285C19.2558 25.7172 19.3222 25.1304 19.1672 24.5822Z" fill="var(--fill-0, black)"/>
<path id="Vector_12" d="M24.8811 24.5835C26.7131 24.3474 28.584 24.5558 30.3192 25.1893C31.9783 25.814 33.4238 26.867 34.49 28.2277C32.5107 27.7767 30.4808 27.5719 28.4519 27.6186C27.785 27.6278 27.1214 27.511 26.4996 27.275C25.9277 27.093 25.4452 26.7166 25.146 26.2191C24.8468 25.7215 24.7524 25.1385 24.8811 24.5835Z" fill="var(--fill-0, black)"/>
<path id="Vector_13" d="M1.97685 16.3345C1.97685 17.6238 4.71233 30.0489 8.15051 33.2563C8.26905 33.6378 8.79862 33.6542 8.95115 33.2848C8.44532 26.7763 10.9373 20.3927 15.7189 15.9482L16.1641 15.5344C16.1641 15.5344 20.2559 24.047 23.5516 24.3581C26.7583 24.6691 25.8675 19.6925 25.823 19.4259C25.9567 19.6481 27.9163 23.5138 30.4547 23.9581C32.9488 24.4024 31.39 20.1812 31.212 19.7369C31.4575 20.1963 33.5265 25.2583 35.5908 28.4331C36.8293 30.3379 38.9153 29.6892 40.0174 27.7029C40.3104 27.1749 40.5621 26.725 40.6981 26.4909C42.3459 23.5138 42.0787 19.8258 40.1191 17.1154C40.9208 17.2043 41.7224 16.7599 42.1678 16.0935C42.7468 15.1159 42.5686 13.8718 42.0787 12.9387C41.4997 11.8723 40.609 11.028 39.7184 10.2282C38.2041 8.93968 36.5117 7.91773 34.6412 7.20679C34.9084 7.11792 35.1756 6.9402 35.3537 6.71802C35.8437 6.18482 35.9772 5.38503 35.6655 4.76296C35.3983 4.14089 34.8193 3.741 34.1959 3.42997C33.5278 3.11894 32.8598 2.85234 32.1471 2.63018C30.6774 2.14141 29.1632 1.8748 27.6491 1.78594C24.7541 1.60821 21.8593 2.14141 19.2316 3.29667C19.5434 2.2747 19.8106 1.25274 20.1224 0.275211C20.1669 0.0974781 19.9887 -0.0358214 19.8552 0.00861183C18.6526 0.230778 17.4947 0.586244 16.4258 1.07501C12.7739 2.71903 6.11873 7.75894 4.64898 11.4913C4.47089 11.2692 4.24809 11.0914 3.93632 11.047C3.31292 10.9137 2.68937 11.4025 2.42216 11.9357C2.11038 12.6022 2.11039 13.3575 2.06583 14.0685C1.97685 14.8238 1.97685 15.5792 1.97685 16.3345Z" fill="var(--fill-0, black)"/>
<path id="Vector_14" d="M17.5637 43.6759C17.5637 43.6759 23.8799 44.2544 27.4266 43.7187C27.4266 43.7187 27.647 47.9253 22.2069 47.5288C17.7071 47.2014 17.5637 43.6759 17.5637 43.6759Z" fill="var(--fill-0, white)"/>
</g>
<path id="Vector 19" d="M16.7732 49.7325L16.5839 51.4838C16.7076 52.6281 17.587 53.5453 18.7251 53.7171L22.3568 54.2653L26.0927 53.7118C27.2306 53.5432 28.111 52.6274 28.2347 51.4838L28.0456 49.7348C28.0347 49.6344 27.9356 49.5684 27.8388 49.5971L27.7446 49.625C24.2297 50.6665 20.4868 50.6569 16.9773 49.5974C16.882 49.5686 16.7839 49.6335 16.7732 49.7325Z" fill="var(--fill-0, black)"/>
</g>
</svg>
