<svg width="44" height="55" viewBox="0 0 44 55" fill="none" xmlns="http://www.w3.org/2000/svg">
<g id="Frame 1618874452">
<g id="Frame 24">
<g id="Group 26">
<path id="Vector" d="M5.57295 29.8364C5.28541 29.5343 4.92618 29.3098 4.52863 29.1836C4.13108 29.0575 3.7081 29.0338 3.29897 29.1149C2.92926 29.2879 2.61917 29.5667 2.4079 29.9159C2.11748 30.4754 1.94339 31.0879 1.89613 31.7165C1.84888 32.3451 1.92944 32.9767 2.13296 33.5733C2.74644 35.7129 4.13175 37.549 6.02086 38.7261C6.24584 38.9033 6.51004 39.0239 6.79128 39.0779C7.07252 39.1319 7.3626 39.1176 7.63719 39.0363C7.93963 38.8727 8.16658 38.5979 8.27001 38.27C8.63572 37.352 8.7034 36.3423 8.46345 35.3838C8.24865 33.232 7.21354 31.2454 5.57295 29.8364Z" fill="#F7846C"/>
<path id="Vector_2" d="M37.638 29.8364C37.9255 29.5343 38.2848 29.3098 38.6823 29.1836C39.0799 29.0575 39.5028 29.0338 39.912 29.1149C40.2817 29.2879 40.5918 29.5667 40.803 29.9159C41.0935 30.4754 41.2675 31.0879 41.3148 31.7165C41.3621 32.3451 41.2815 32.9767 41.078 33.5733C40.4645 35.7129 39.0792 37.549 37.1901 38.7261C36.9651 38.9033 36.7009 39.0239 36.4197 39.0779C36.1384 39.1319 35.8483 39.1176 35.5738 39.0363C35.2713 38.8727 35.0444 38.5979 34.9409 38.27C34.5752 37.352 34.5075 36.3423 34.7475 35.3838C34.9623 33.232 35.9974 31.2454 37.638 29.8364Z" fill="#F7846C"/>
<path id="Vector_3" d="M6.94216 36.951C7.06967 33.3656 5.51986 31.9714 4.00781 30.4675C4.84912 31.7819 5.47456 33.2225 5.86037 34.7347C5.26332 34.3036 4.5429 34.0771 3.80659 34.0889C4.95973 34.9177 6.01227 35.8777 6.94216 36.951Z" fill="#DD4040"/>
<path id="Vector_4" d="M36.2688 36.951C36.1413 33.3656 37.6911 31.9714 39.2031 30.4675C38.3618 31.7819 37.7364 33.2225 37.3506 34.7347C37.9476 34.3036 38.668 34.0771 39.4043 34.0889C38.2512 34.9177 37.1987 35.8777 36.2688 36.951Z" fill="#DD4040"/>
<path id="Vector_5" d="M36.9568 27.9788C37.2939 32.191 37.1261 34.2744 36.457 38.4468C35.8525 42.1784 34.7495 45.9903 32.1281 48.8809C30.3581 50.667 27.9958 51.7439 25.4866 51.9086C22.0956 52.1008 18.9304 52.4508 15.8148 51.0983C13.5452 50.2721 11.5884 48.761 10.2151 46.7741C8.88921 44.6911 8.59793 42.1602 8.20747 39.7565C7.67734 36.6763 7.40403 35.7115 7.39034 32.5861C7.44978 28.3089 8.08375 22.6203 10.9384 19.2681C12.2709 17.7484 13.9077 16.5254 15.7428 15.6785C17.5779 14.8316 19.5705 14.3796 21.5914 14.3517C24.0361 14.4021 26.4363 15.0157 28.6052 16.1447C30.7742 17.2738 32.6535 18.8878 34.0971 20.8614C35.7864 22.8674 36.7886 25.3617 36.9568 27.9788Z" fill="#F7846C"/>
<path id="Vector_6" d="M21.1718 40.5814C21.7122 38.4632 22.1264 36.3149 22.4121 34.1476C23.0644 36.6848 23.5535 38.3895 24.2807 40.5814C23.2504 40.6025 22.2203 40.5814 21.1718 40.5814Z" fill="#DD4040"/>
<g id="Group 8">
<path id="Vector_7" d="M15.1788 30.3317C15.6912 30.1828 16.101 30.2767 16.5185 30.3317C16.936 30.3866 17.7653 30.8342 18.1559 31.2248C18.6025 31.6714 19.3467 32.6229 19.4956 33.0471C19.2172 32.3075 19.1979 31.5225 18.4536 30.7782C17.7093 29.8851 16.2629 29.5088 15.4765 29.5874C13.9393 29.7839 12.231 30.8143 11.3379 33.0471C12.5572 31.9122 13.5791 30.7964 15.1788 30.3317Z" fill="#DD4040"/>
</g>
<g id="Group 7">
<path id="Vector_8" d="M28.9816 30.3318C29.4939 30.1829 29.9037 30.2769 30.3212 30.3318C30.7388 30.3868 31.568 30.8343 31.9586 31.2249C32.4052 31.6715 33.1495 32.623 33.2983 33.0473C33.02 32.3076 33.0006 31.5226 32.2564 30.7784C31.5121 29.8852 30.0657 29.509 29.2793 29.5875C27.7421 29.784 26.0338 30.8144 25.1406 33.0473C26.36 31.9123 27.3819 30.7965 28.9816 30.3318Z" fill="#DD4040"/>
</g>
<path id="Vector_9" d="M1.96951 16.2914C1.96951 17.5774 4.69778 29.9697 8.1269 33.1687C8.24512 33.5491 8.7733 33.5654 8.92543 33.197L8.52153 28.0001C8.27268 24.7982 9.52391 21.6621 11.9085 19.5109L16.1744 15.6625C16.1744 15.6625 20.2004 23.9836 23.4874 24.2938C26.6856 24.604 25.7972 19.6406 25.7528 19.3746C25.8861 19.5963 27.8405 23.4518 30.3723 23.8949C32.8598 24.3381 31.3052 20.128 31.1275 19.6849C31.3724 20.1431 33.436 25.1917 35.4948 28.3582C36.7301 30.2579 38.8106 29.6109 39.9098 27.6299C40.2019 27.1033 40.4531 26.6546 40.5887 26.421C42.2322 23.4518 41.9657 19.7735 40.0112 17.0702C40.8107 17.1589 41.6103 16.7157 42.0545 16.0511C42.632 15.076 42.4542 13.8352 41.9657 12.9046C41.3882 11.841 40.4998 10.999 39.6115 10.2013C38.1012 8.91611 36.4133 7.89685 34.5477 7.18779C34.8142 7.09915 35.0807 6.9219 35.2584 6.70031C35.7471 6.16852 35.8803 5.37083 35.5693 4.7504C35.3028 4.12998 34.7253 3.73113 34.1036 3.42093C33.4372 3.11072 32.771 2.84482 32.0602 2.62324C30.5944 2.13577 29.0842 1.86986 27.574 1.78123C24.6867 1.60397 21.7996 2.13577 19.1788 3.28797C19.4897 2.2687 19.7562 1.24944 20.0672 0.274485C20.1116 0.0972211 19.9339 -0.035727 19.8007 0.00858913C18.6013 0.230169 17.4464 0.584698 16.3804 1.07217C12.7381 2.71186 6.10047 7.73848 4.6346 11.461C4.45698 11.2395 4.23476 11.0622 3.92381 11.0179C3.30206 10.8849 2.68015 11.3724 2.41364 11.9042C2.10269 12.5689 2.1027 13.3223 2.05825 14.0314C1.96951 14.7847 1.96951 15.5381 1.96951 16.2914Z" fill="black"/>
<path id="Vector_10" d="M17.5152 43.5607C17.5152 43.5607 23.8147 44.1378 27.3521 43.6034C27.3521 43.6034 27.5719 47.799 22.1461 47.4035C17.6583 47.0769 17.5152 43.5607 17.5152 43.5607Z" fill="white"/>
</g>
<path id="Vector 19" d="M16.257 49.9197L16.0586 51.755C16.1882 52.9542 17.1098 53.9154 18.3025 54.0955L22.1086 54.67L26.0238 54.0899C27.2163 53.9133 28.139 52.9535 28.2686 51.755L28.0704 49.9221C28.0591 49.8169 27.9552 49.7477 27.8537 49.7777L27.755 49.807C24.0713 50.8984 20.1489 50.8884 16.4709 49.778C16.371 49.7479 16.2682 49.8159 16.257 49.9197Z" fill="black"/>
</g>
</g>
</svg>
